<svg width="719" height="227" viewBox="0 0 719 227" fill="none" xmlns="http://www.w3.org/2000/svg">
<path d="M389.042 86.6261H380.156C379.045 86.6261 378.675 85.9781 379.045 84.6822L393.671 29.0489C394.103 27.7529 395.029 27.1049 396.448 27.1049H408.759C410.302 27.1049 411.228 27.7529 411.536 29.0489L426.162 84.6822C426.532 85.9781 426.162 86.6261 425.051 86.6261H416.165C415.486 86.6261 415.023 86.5027 414.776 86.2558C414.529 85.9473 414.344 85.4227 414.221 84.6822L411.629 74.4997H393.578L390.986 84.6822C390.863 85.4227 390.647 85.9473 390.338 86.2558C390.092 86.5027 389.66 86.6261 389.042 86.6261ZM402.465 38.3057L395.8 65.0578H409.5L402.835 38.3057H402.465ZM466.766 86.6261H436.311C435.015 86.6261 434.367 85.9781 434.367 84.6822V29.0489C434.367 27.7529 435.015 27.1049 436.311 27.1049H444.18C445.476 27.1049 446.124 27.7529 446.124 29.0489V75.3328C446.124 76.0116 446.494 76.3511 447.234 76.3511H466.766C468 76.3511 468.618 77.0299 468.618 78.3876V84.6822C468.618 85.9781 468 86.6261 466.766 86.6261ZM506.406 27.1049H514.181C515.539 27.1049 516.218 27.7221 516.218 28.9563V71.5375C516.218 76.3511 514.86 80.0846 512.145 82.7382C509.491 85.3301 505.758 86.6261 500.944 86.6261H490.762C485.886 86.6261 482.122 85.3301 479.468 82.7382C476.815 80.1463 475.488 76.4128 475.488 71.5375V29.0489C475.488 27.7529 476.136 27.1049 477.432 27.1049H485.3C486.596 27.1049 487.244 27.7529 487.244 29.0489V70.9821C487.244 72.9569 487.645 74.3763 488.447 75.2402C489.311 76.0425 490.7 76.4436 492.613 76.4436H499C500.975 76.4436 502.363 76.0425 503.166 75.2402C504.03 74.3763 504.462 72.9569 504.462 70.9821V29.0489C504.462 27.7529 505.11 27.1049 506.406 27.1049ZM551.909 86.6261H542.097C537.222 86.6261 533.457 85.3301 530.804 82.7382C528.15 80.1463 526.823 76.4128 526.823 71.5375V42.1935C526.823 37.3183 528.15 33.5847 530.804 30.9928C533.457 28.4009 537.222 27.1049 542.097 27.1049H551.909C556.723 27.1049 560.456 28.4318 563.11 31.0854C565.763 33.6773 567.09 37.38 567.09 42.1935V44.9705C567.09 46.3282 566.442 47.007 565.146 47.007H557.278C555.982 47.007 555.334 46.3282 555.334 44.9705V42.7489C555.334 40.7741 554.933 39.3856 554.131 38.5834C553.329 37.7194 551.94 37.2874 549.965 37.2874H543.948C542.035 37.2874 540.647 37.7194 539.783 38.5834C538.98 39.3856 538.579 40.7741 538.579 42.7489V70.9821C538.579 72.9569 538.98 74.3763 539.783 75.2402C540.647 76.0425 542.035 76.4436 543.948 76.4436H549.965C551.94 76.4436 553.329 76.0425 554.131 75.2402C554.933 74.3763 555.334 72.9569 555.334 70.9821V65.1503C555.334 64.4715 554.995 64.1321 554.316 64.1321H548.762C547.466 64.1321 546.818 63.4841 546.818 62.1882V55.8936C546.818 54.5976 547.466 53.9496 548.762 53.9496H564.961C566.381 53.9496 567.09 54.6593 567.09 56.0787V71.5375C567.09 76.3511 565.763 80.0846 563.11 82.7382C560.456 85.3301 556.723 86.6261 551.909 86.6261ZM584.393 86.6261H575.507C574.396 86.6261 574.026 85.9781 574.396 84.6822L589.022 29.0489C589.454 27.7529 590.379 27.1049 591.799 27.1049H604.11C605.653 27.1049 606.579 27.7529 606.887 29.0489L621.513 84.6822C621.883 85.9781 621.513 86.6261 620.402 86.6261H611.516C610.837 86.6261 610.374 86.5027 610.127 86.2558C609.88 85.9473 609.695 85.4227 609.572 84.6822L606.98 74.4997H588.929L586.337 84.6822C586.214 85.4227 585.998 85.9473 585.689 86.2558C585.442 86.5027 585.01 86.6261 584.393 86.6261ZM597.816 38.3057L591.151 65.0578H604.851L598.186 38.3057H597.816Z" fill="white"/>
<path d="M395.084 221.098H381.928C379.761 221.098 378.678 220.014 378.678 217.848V124.827C378.678 122.66 379.761 121.576 381.928 121.576H431.302C433.365 121.576 434.397 122.66 434.397 124.827V135.352C434.397 137.518 433.365 138.602 431.302 138.602H400.192C398.953 138.602 398.334 139.169 398.334 140.304V164.295C398.334 165.533 398.953 166.152 400.192 166.152H426.658C428.825 166.152 429.909 167.236 429.909 169.402V179.773C429.909 182.043 428.825 183.178 426.658 183.178H400.192C398.953 183.178 398.334 183.745 398.334 184.88V217.848C398.334 220.014 397.251 221.098 395.084 221.098ZM485.813 91.7046H501.136C502.271 91.7046 502.994 92.0141 503.303 92.6332C503.613 93.2523 503.406 93.9746 502.684 94.8001L490.147 109.659C489.012 111 487.671 111.671 486.123 111.671H475.908C473.844 111.671 473.328 110.587 474.36 108.42L481.325 94.6453C482.357 92.6848 483.853 91.7046 485.813 91.7046ZM458.727 221.098H443.869C442.012 221.098 441.392 220.014 442.012 217.848L466.466 124.827C467.189 122.66 468.736 121.576 471.11 121.576H491.695C494.274 121.576 495.822 122.66 496.338 124.827L520.793 217.848C521.412 220.014 520.793 221.098 518.936 221.098H504.077C502.942 221.098 502.168 220.892 501.755 220.479C501.343 219.963 501.033 219.086 500.827 217.848L496.493 200.822H466.312L461.978 217.848C461.771 219.086 461.41 219.963 460.894 220.479C460.482 220.892 459.759 221.098 458.727 221.098ZM481.17 140.304L470.026 185.035H492.933L481.789 140.304H481.17ZM575.222 221.098H558.352C550.2 221.098 543.906 218.931 539.469 214.597C535.032 210.264 532.813 204.021 532.813 195.869V146.805C532.813 138.654 535.032 132.411 539.469 128.077C543.906 123.743 550.2 121.576 558.352 121.576H575.222C583.271 121.576 589.513 123.795 593.95 128.232C598.49 132.566 600.76 138.757 600.76 146.805V154.08C600.76 156.35 599.625 157.485 597.355 157.485H584.354C582.187 157.485 581.104 156.35 581.104 154.08V147.734C581.104 144.432 580.382 142.11 578.937 140.769C577.596 139.324 575.274 138.602 571.972 138.602H561.447C558.248 138.602 555.927 139.324 554.482 140.769C553.141 142.11 552.47 144.432 552.47 147.734V194.941C552.47 198.243 553.141 200.616 554.482 202.06C555.927 203.402 558.248 204.072 561.447 204.072H571.972C575.274 204.072 577.596 203.402 578.937 202.06C580.382 200.616 581.104 198.243 581.104 194.941V188.595C581.104 186.325 582.187 185.19 584.354 185.19H597.355C599.625 185.19 600.76 186.325 600.76 188.595V195.869C600.76 203.918 598.49 210.16 593.95 214.597C589.513 218.931 583.271 221.098 575.222 221.098ZM638.075 124.827V217.848C638.075 220.014 636.991 221.098 634.825 221.098H621.669C619.502 221.098 618.418 220.014 618.418 217.848V124.827C618.418 122.66 619.502 121.576 621.669 121.576H634.825C636.991 121.576 638.075 122.66 638.075 124.827ZM713.08 221.098H662.158C659.992 221.098 658.908 220.014 658.908 217.848V124.827C658.908 122.66 659.992 121.576 662.158 121.576H675.314C677.481 121.576 678.565 122.66 678.565 124.827V202.215C678.565 203.35 679.184 203.918 680.422 203.918H713.08C715.144 203.918 716.175 205.053 716.175 207.323V217.848C716.175 220.014 715.144 221.098 713.08 221.098Z" fill="white"/>
<path d="M244.156 67.3059H257.203C257.6 67.3059 257.923 67.6285 257.923 68.0264V79.6783C257.923 80.0762 257.6 80.3988 257.203 80.3988H244.156C243.758 80.3988 243.435 80.0762 243.435 79.6783V68.0264C243.435 67.6285 243.758 67.3059 244.156 67.3059Z" fill="white" stroke="black"/>
<path d="M262.036 67.306H275.083C275.481 67.306 275.803 67.6286 275.803 68.0265V79.6785C275.803 80.0764 275.481 80.3989 275.083 80.3989H262.036C261.638 80.3989 261.316 80.0764 261.316 79.6785V68.0265C261.316 67.6286 261.638 67.306 262.036 67.306Z" fill="white" stroke="black"/>
<path d="M262.036 83.7655H275.083C275.481 83.7655 275.803 84.0881 275.803 84.486V96.1379C275.803 96.5358 275.481 96.8584 275.083 96.8584H262.036C261.638 96.8584 261.316 96.5358 261.316 96.1379V84.486C261.316 84.0881 261.638 83.7655 262.036 83.7655Z" fill="white" stroke="black"/>
<path d="M244.156 83.7655H257.203C257.6 83.7655 257.923 84.0881 257.923 84.486V96.1379C257.923 96.5358 257.6 96.8584 257.203 96.8584H244.156C243.758 96.8584 243.435 96.5358 243.435 96.1379V84.486C243.435 84.0881 243.758 83.7655 244.156 83.7655Z" fill="white" stroke="black"/>
<path d="M12.6717 104.75L12.6154 104.82C11.7734 105.868 10.2944 107.563 8.64908 109.448C7.81574 110.403 6.93972 111.407 6.08218 112.401C4.80219 113.884 3.55996 115.347 2.54973 116.603C1.89278 117.42 1.34523 118.135 0.950037 118.705C7.27589 118.215 10.6081 116.762 13.4638 114.282C14.9832 112.963 16.3794 111.343 18.0249 109.376C18.2139 109.15 18.4062 108.919 18.6021 108.684C20.1044 106.882 21.8231 104.821 23.9972 102.501L62.1539 59.1787C62.155 59.1774 62.1561 59.176 62.1572 59.1747C64.0372 56.9517 65.5989 55.1124 66.9622 53.7301C68.3189 52.3547 69.5301 51.377 70.7193 50.9376C71.9554 50.4809 73.1296 50.619 74.3319 51.3673C75.4984 52.0933 76.6945 53.394 78.055 55.2542C78.0553 55.2547 78.0557 55.2551 78.056 55.2556L95.4858 78.7833L95.4907 78.7899L95.4906 78.79C96.3526 79.9944 97.255 81.2055 98.1657 82.4279L98.3975 82.7391C99.3855 84.0655 100.38 85.4048 101.331 86.7535L101.332 86.7536C102.082 87.8171 102.877 88.8369 103.676 89.8612C103.909 90.1598 104.142 90.4589 104.375 90.7595C105.391 92.0735 106.387 93.4101 107.241 94.8338C108.181 95.9507 109.003 97.0983 109.809 98.2219L109.902 98.3514C110.748 99.5317 111.581 100.684 112.533 101.783L112.534 101.783C113.922 103.386 116.948 106.228 118.882 107.485C119.585 107.84 120.246 108.185 120.884 108.517C124.452 110.375 127.261 111.837 132.313 112.551L132.243 113.046L132.313 112.551C137.741 113.319 140.53 112.703 143.926 111.954C145.379 111.633 146.943 111.288 148.872 111.016C149.584 110.458 150.549 109.996 151.452 109.597C151.704 109.486 151.95 109.38 152.187 109.278C152.879 108.979 153.494 108.714 153.946 108.452L153.946 108.452C154.906 107.895 155.69 107.369 156.423 106.873L156.502 106.82C157.185 106.359 157.836 105.919 158.535 105.522C159.672 104.454 160.718 103.57 161.764 102.697C161.883 102.598 162.002 102.499 162.12 102.4C163.063 101.615 164.012 100.823 165.047 99.8914C165.896 99.1259 166.857 98.3398 167.815 97.5559C167.998 97.4065 168.18 97.2572 168.362 97.1082C169.503 96.1711 170.613 95.2411 171.533 94.3317C174.271 91.6222 179.01 87.4966 183.911 83.2528C184.285 82.9284 184.661 82.6032 185.037 82.2779C189.587 78.3397 194.163 74.3789 197.343 71.3971L197.352 71.3891L197.352 71.3892L255.397 19.479C255.398 19.4785 255.398 19.4781 255.399 19.4776C257.329 17.7262 260.956 15.5803 264.762 16.3583C268.148 17.0496 270.427 19.8791 271.894 21.8134C272.316 22.3693 272.774 22.8994 273.245 23.4356C273.315 23.5143 273.384 23.5932 273.454 23.6724C273.856 24.1288 274.266 24.5933 274.655 25.0726L274.267 25.3878L274.655 25.0726C275.63 26.2744 276.469 27.3012 277.373 28.3566L277.375 28.3595L338.731 101.11C338.731 101.111 338.732 101.112 338.733 101.113M12.6717 104.75L345.269 107.033C342.075 105.197 340.65 104.128 338.351 101.435L338.733 101.113M12.6717 104.75L12.6736 104.744M12.6717 104.75L12.2257 104.507L12.2294 104.496M338.733 101.113C340.987 103.752 342.363 104.786 345.518 106.599M338.733 101.113L345.518 106.599M363.918 111.27C357.39 111.422 350.238 109.307 345.518 106.599M363.918 111.27L364.307 111.759L345.518 106.599M363.918 111.27C364.126 111.265 364.333 111.258 364.54 111.249L284.743 11.0278C277.822 2.23795 268.66 2.28557 258.981 2.33589C258.247 2.3397 257.511 2.34353 256.772 2.34353C255.313 2.34425 253.817 2.32141 252.303 2.29829C246.051 2.20285 239.484 2.10259 233.939 3.63448C226.765 5.61538 218.467 12.0009 211.273 17.5374C208.888 19.3727 206.624 21.1148 204.563 22.5721C202.015 24.3739 199.53 26.2309 197.021 28.105C194.928 29.6689 192.819 31.2448 190.644 32.8107M363.918 111.27L284.352 11.3392L284.35 11.3371C277.586 2.74616 268.67 2.78938 258.952 2.8365C258.23 2.84 257.503 2.84353 256.772 2.84353C255.296 2.84426 253.794 2.82125 252.277 2.79803C249.919 2.76191 247.526 2.72527 245.145 2.77664C241.248 2.8607 237.458 3.18121 234.072 4.11643L233.939 3.63454L234.072 4.11644C229.389 5.40962 224.177 8.63303 219.065 12.3034C216.516 14.1342 214.004 16.0662 211.607 17.9107L211.573 17.9376C209.192 19.7698 206.921 21.5171 204.851 22.9804C202.297 24.7864 199.83 26.6306 197.333 28.4963C195.244 30.0577 193.134 31.6341 190.937 33.2158M190.937 33.2158L190.644 32.8107M190.937 33.2158C190.937 33.216 190.937 33.2163 190.936 33.2165M190.937 33.2158L157.554 51.8037M190.644 32.8107L176.644 42.9417M190.644 32.8107L190.936 33.2165M264.662 16.8482C267.842 17.4974 270.019 20.1683 271.496 22.1159L264.662 16.8482ZM264.662 16.8482C261.086 16.1174 257.618 18.1391 255.733 19.8493L264.662 16.8482ZM90.6547 40.3895C89.9638 39.9611 89.3251 39.5178 88.6984 39.0829C86.5088 37.5633 84.4665 36.146 80.8613 35.8229C67.3101 34.6018 38.7419 70.9566 21.6226 92.7421C17.8359 97.5609 14.6093 101.667 12.2294 104.496M90.6547 40.3895L90.3911 40.8144C90.3912 40.8144 90.3912 40.8144 90.3912 40.8144M90.6547 40.3895L90.3912 40.8144M90.6547 40.3895C96.5567 44.0509 102.666 47.2041 109.77 49.7304M90.3912 40.8144C89.6635 40.3632 89.0035 39.9057 88.3654 39.4634C86.1959 37.9596 84.2795 36.6312 80.8167 36.321L80.8164 36.3209C78.8845 36.1468 76.5666 36.7891 73.9291 38.1494C71.2993 39.5057 68.4005 41.5504 65.3237 44.112C59.1708 49.2346 52.3613 56.3777 45.6436 64.0723C38.9284 71.764 32.3176 79.9921 26.5615 87.2772C24.9791 89.28 23.4605 91.2125 22.0218 93.0433C18.2649 97.8241 15.0532 101.911 12.6736 104.744M90.3912 40.8144C96.3166 44.4903 102.458 47.6608 109.603 50.2014M12.6736 104.744L12.7 104.665L12.7037 104.654L12.2294 104.496M12.6736 104.744C12.653 104.769 12.6325 104.793 12.6121 104.817C12.6121 104.817 12.612 104.817 12.612 104.818L12.6054 104.812L12.2537 104.516L12.2294 104.496M109.603 50.2014L109.77 49.7304M109.603 50.2014C116.981 52.8287 124.95 54.5049 133.413 54.8595C140.335 55.1491 145.35 54.423 149.255 53.5948C150.559 53.3182 151.747 53.0283 152.831 52.7638C153.36 52.6345 153.865 52.5113 154.347 52.3987C155.191 52.2013 155.967 52.0352 156.698 51.9187M109.603 50.2014C109.603 50.2014 109.603 50.2014 109.603 50.2015L109.77 49.7304M109.77 49.7304C117.104 52.3419 125.024 54.0076 133.434 54.36C142.608 54.7438 148.398 53.331 152.702 52.2806C154.453 51.8533 155.958 51.486 157.345 51.324C157.126 51.5095 156.911 51.7092 156.698 51.9187M156.698 51.9187C156.99 51.8721 157.275 51.8334 157.554 51.8037M156.698 51.9187C156.212 52.3959 155.738 52.924 155.269 53.4507L155.15 53.5854C154.301 54.5388 153.453 55.4923 152.514 56.2527M157.554 51.8037C156.872 52.4016 156.204 53.1523 155.514 53.9278C154.674 54.8727 153.8 55.8544 152.828 56.6414M157.554 51.8037L147.836 60.736M152.514 56.2527C152.268 56.4516 151.947 56.7066 151.581 56.9975C150.913 57.5289 150.095 58.1799 149.307 58.8267C148.098 59.8199 146.888 60.8611 146.355 61.5052L146.941 62.2816C149.492 61.1628 155.542 57.5026 161.648 53.6069C167.766 49.7039 173.998 45.5268 176.939 43.3452L176.937 43.3468L176.644 42.9417M152.514 56.2527C152.514 56.2527 152.514 56.2527 152.514 56.2528L152.828 56.6414M152.514 56.2527L152.828 56.6414M176.644 42.9417L176.942 43.3433L190.936 33.2165M176.644 42.9417C171.241 46.9503 154.589 57.7841 148.124 61.1497C147.687 61.5446 147.336 61.888 147.126 62.1423L146.741 61.8238L146.54 61.3659C146.9 61.2077 147.336 60.9954 147.836 60.736M190.936 33.2165L147.836 60.736M147.836 60.736C148.999 59.6904 150.677 58.3554 151.884 57.3954C152.252 57.103 152.576 56.8454 152.828 56.6414" fill="white" stroke="black"/>
<path d="M59.5979 72.3694H68.3229C68.4975 72.3694 68.639 72.5109 68.639 72.6855V80.4757C68.639 80.6503 68.4975 80.7918 68.3229 80.7918H59.5979C59.4233 80.7918 59.2817 80.6503 59.2817 80.4757V72.6855C59.2817 72.5109 59.4233 72.3694 59.5979 72.3694Z" fill="white" stroke="black"/>
<path d="M71.5537 72.3694H80.2787C80.4533 72.3694 80.5948 72.5109 80.5948 72.6855V80.4757C80.5948 80.6503 80.4533 80.7918 80.2787 80.7918H71.5537C71.3791 80.7918 71.2375 80.6503 71.2375 80.4757V72.6855C71.2375 72.5109 71.3791 72.3694 71.5537 72.3694Z" fill="white" stroke="black"/>
<path d="M71.5537 83.3759H80.2787C80.4533 83.3759 80.5948 83.5174 80.5948 83.692V91.4822C80.5948 91.6568 80.4533 91.7983 80.2787 91.7983H71.5537C71.3791 91.7983 71.2375 91.6568 71.2375 91.4822V83.692C71.2375 83.5174 71.3791 83.3759 71.5537 83.3759Z" fill="white" stroke="black"/>
<path d="M59.5979 83.3759H68.3229C68.4975 83.3759 68.639 83.5174 68.639 83.692V91.4822C68.639 91.6568 68.4975 91.7983 68.3229 91.7983H59.5979C59.4233 91.7983 59.2817 91.6568 59.2817 91.4822V83.692C59.2817 83.5174 59.4233 83.3759 59.5979 83.3759Z" fill="white" stroke="black"/>
<path d="M244.505 132.438L244.812 132.309C247.255 131.287 249.313 131.767 250.97 132.725C252.326 133.51 253.437 134.634 254.27 135.477C254.432 135.642 254.584 135.796 254.725 135.934L254.727 135.935L268.007 149.064L268.016 149.073L268.016 149.073C268.336 149.406 268.68 149.793 269.025 150.181C269.261 150.447 269.498 150.714 269.73 150.965C270.32 151.607 270.907 152.191 271.491 152.605C272.078 153.021 272.606 153.223 273.086 153.193C273.54 153.164 274.059 152.92 274.631 152.205C274.993 151.541 275.035 150.913 274.878 150.306C274.715 149.671 274.329 149.038 273.808 148.413C273.29 147.792 272.662 147.208 272.047 146.667C271.875 146.516 271.702 146.366 271.533 146.219C271.111 145.854 270.71 145.508 270.404 145.203L270.404 145.203C269.96 144.76 269.213 144.036 268.295 143.145C268.092 142.948 267.881 142.743 267.663 142.531C266.459 141.363 265.048 139.989 263.674 138.624C262.302 137.261 260.964 135.904 259.909 134.771C259.381 134.204 258.921 133.69 258.561 133.256C258.209 132.833 257.926 132.455 257.781 132.171C257.781 132.171 257.781 132.171 257.781 132.171L258.226 131.943C256.352 128.286 258.333 124.869 260.819 123.63C265.308 121.391 269.016 125.269 273.3 129.75C274.212 130.704 275.151 131.685 276.128 132.641L244.505 132.438ZM244.505 132.438V132.457M244.505 132.438V132.457M244.505 132.457C243.059 133.174 241.837 134.599 241.242 136.28C240.6 138.094 240.675 140.245 242.016 142.171L242.042 142.208L242.075 142.24L255.351 155.383C255.831 155.86 256.331 156.31 256.809 156.741C256.991 156.905 257.17 157.065 257.343 157.223C257.98 157.806 258.55 158.361 259.002 158.947C259.451 159.53 259.773 160.13 259.924 160.799C260.063 161.415 260.063 162.116 259.853 162.948C259.087 163.323 258.462 163.47 257.936 163.476C257.372 163.481 256.888 163.325 256.435 163.056C255.973 162.782 255.543 162.393 255.095 161.931C254.895 161.725 254.697 161.51 254.491 161.287C254.468 161.261 254.444 161.235 254.42 161.209C254.191 160.961 253.954 160.705 253.706 160.456C253.706 160.456 253.706 160.456 253.706 160.456L236.22 142.736L236.217 142.733C233.911 140.431 231.688 138.263 229.453 136.084C227.778 134.451 226.098 132.812 224.371 131.105C224.181 130.917 223.974 130.702 223.751 130.469C223.098 129.788 222.308 128.964 221.397 128.264C220.158 127.312 218.628 126.531 216.753 126.543C213.036 126.567 210.318 129.171 210.198 132.851C210.16 134.023 210.604 135.231 211.298 136.411C211.994 137.597 212.969 138.797 214.053 139.968C215.481 141.509 217.144 143.043 218.656 144.436C219.423 145.144 220.151 145.815 220.79 146.433L244.219 169.929C244.219 169.929 244.219 169.93 244.22 169.93C245.853 171.584 247.293 172.998 248.858 174.535C249.269 174.938 249.688 175.35 250.122 175.777C251.018 176.658 251.759 177.333 252.356 177.876C252.45 177.962 252.541 178.045 252.629 178.125C253.278 178.718 253.7 179.12 253.97 179.484C254.221 179.824 254.329 180.114 254.342 180.49C254.356 180.851 254.284 181.307 254.116 181.975C253.488 182.141 252.715 182.112 251.81 181.909C250.789 181.681 249.649 181.242 248.443 180.681C246.866 179.948 245.231 179.033 243.639 178.143C242.778 177.661 241.93 177.187 241.11 176.752L241.11 176.752C238.005 175.107 234.852 175.242 232.677 176.665C230.483 178.1 229.383 180.787 230.305 183.994C230.614 185.073 231.311 186.013 232.202 186.838C233.094 187.663 234.205 188.397 235.385 189.063C236.566 189.729 237.835 190.336 239.047 190.902C239.284 191.013 239.519 191.121 239.751 191.229C240.71 191.674 241.613 192.092 242.404 192.502L242.405 192.502C243.833 193.24 245.241 193.982 246.632 194.716C260.552 202.051 272.872 208.543 288.403 202.345C292.393 200.754 296.757 197.61 300.64 194.106C304.526 190.599 307.967 186.695 310.103 183.547C315.793 175.161 319.029 162.633 315.087 150.702L244.505 132.457ZM287.742 137.168L287.742 137.168C286.892 136.335 285.886 135.412 284.819 134.431C282.974 132.737 280.945 130.873 279.215 129.019C277.839 127.545 276.616 126.041 275.783 124.581C274.955 123.129 274.478 121.657 274.692 120.271C274.692 120.271 274.692 120.271 274.692 120.271L287.742 137.168ZM287.742 137.168C287.963 137.384 288.17 137.579 288.366 137.764C288.634 138.016 288.882 138.251 289.121 138.495C289.522 138.905 289.831 139.281 290.035 139.676C290.4 140.384 290.481 141.261 289.818 142.713L287.742 137.168ZM279.834 108.921L279.886 109.419C285.911 108.794 289.201 112.085 291.939 114.824C292.198 115.083 292.451 115.336 292.702 115.581C293.487 116.35 294.262 117.108 295.03 117.858C300.802 123.5 306.159 128.735 312.212 135.158L312.576 134.815L312.212 135.158C319.285 142.662 322.328 153.403 321.821 163.981C321.314 174.561 317.259 184.904 310.231 191.603C308.851 192.919 307.575 194.249 306.313 195.563C301.579 200.496 297.051 205.215 287.985 208.172C275.947 212.098 265.882 210.076 255.749 205.108C255.068 204.774 254.149 204.326 253.062 203.795C250.193 202.396 246.152 200.424 242.21 198.462C236.756 195.746 231.55 193.074 229.881 191.954L229.602 192.37L229.881 191.954C220.903 185.931 223.804 171.873 235.506 170.079L236.218 169.97L235.866 169.341C235.468 168.628 234.464 167.471 233.196 166.133C231.911 164.777 230.306 163.186 228.658 161.587C227.002 159.98 225.309 158.372 223.842 156.979C222.375 155.586 221.136 154.409 220.388 153.665L220.388 153.665C219.644 152.925 218.642 151.987 217.513 150.929C217.281 150.713 217.045 150.491 216.804 150.265C215.383 148.932 213.807 147.442 212.288 145.916C210.768 144.39 209.31 142.834 208.123 141.372C206.929 139.902 206.037 138.559 205.615 137.455L205.615 137.455C202.273 128.707 209.297 120.691 217.664 121.202L217.664 121.202C222.097 121.472 225.044 123.937 227.676 126.789C228.271 127.434 228.846 128.094 229.419 128.752C229.48 128.822 229.541 128.892 229.603 128.962C230.235 129.687 230.867 130.407 231.512 131.084C232.8 132.435 234.168 133.644 235.758 134.412L235.939 134.037L236.452 134.116C237.365 131.23 239.133 129.162 241.621 127.943C244.122 126.717 247.391 126.331 251.32 126.903L251.752 126.966L251.873 126.547C252.972 122.728 255.059 120.077 257.922 118.645C260.793 117.21 264.517 116.965 268.947 118.112L269.307 118.205L269.5 117.888C269.757 117.466 270 117.056 270.237 116.659C271.275 114.912 272.168 113.41 273.372 112.206C274.813 110.764 276.712 109.748 279.886 109.419L279.834 108.921Z" fill="white" stroke="black"/>
<path d="M193.076 113.157L193.075 113.158C193.072 113.149 193.07 113.14 193.067 113.132C193.07 113.139 193.073 113.148 193.076 113.157ZM193.063 113.117C192.511 111.121 193.635 109.508 195.314 109.36L195.314 109.36C195.61 109.333 196.015 109.42 196.532 109.654C197.04 109.883 197.613 110.235 198.228 110.682C199.458 111.575 200.806 112.811 202.068 114.093C203.329 115.373 204.492 116.687 205.353 117.727C205.784 118.247 206.136 118.696 206.385 119.035C206.51 119.205 206.605 119.343 206.671 119.446C206.73 119.538 206.747 119.576 206.748 119.575C206.748 119.575 206.748 119.575 206.748 119.575C206.866 120.015 206.864 120.659 206.691 121.298C206.516 121.944 206.187 122.515 205.723 122.856C205.281 123.18 204.659 123.339 203.772 123.064C202.862 122.782 201.681 122.042 200.207 120.552C200.093 120.436 199.879 120.223 199.595 119.938C198.834 119.175 197.563 117.901 196.33 116.641C195.485 115.777 194.664 114.925 194.046 114.257C193.736 113.922 193.481 113.638 193.301 113.423C193.21 113.315 193.143 113.23 193.098 113.168C193.082 113.145 193.07 113.128 193.063 113.117ZM193.056 113.105C193.055 113.103 193.054 113.101 193.054 113.102C193.054 113.102 193.055 113.103 193.056 113.105Z" fill="white" stroke="black"/>
<path d="M227.521 117.565L227.521 117.565L230.102 113.436C230.428 113.108 230.985 112.518 231.651 111.812C232.312 111.112 233.079 110.298 233.836 109.514C234.602 108.719 235.362 107.948 236.006 107.336C236.328 107.029 236.617 106.766 236.861 106.56C237.074 106.38 237.237 106.258 237.347 106.19L237.404 106.158C239.242 105.148 241.074 106.315 241.289 108.023L241.289 108.023C241.329 108.344 241.25 108.771 241.02 109.307C240.794 109.835 240.44 110.427 239.989 111.06C239.087 112.324 237.833 113.697 236.55 114.973C235.27 116.246 233.974 117.41 232.996 118.257C232.508 118.68 232.1 119.023 231.814 119.261C231.672 119.379 231.56 119.471 231.483 119.533C231.462 119.551 231.443 119.566 231.428 119.578C230.32 119.996 229.4 119.892 228.745 119.521C228.075 119.14 227.62 118.442 227.521 117.565Z" fill="white" stroke="black"/>
<path d="M203.181 148.191L203.181 148.191C202.796 148.674 202.164 149.295 201.473 149.953C201.324 150.095 201.172 150.238 201.02 150.382C200.483 150.889 199.946 151.397 199.527 151.833L199.527 151.833C198.815 152.576 198.207 153.203 197.588 153.842C197.066 154.38 196.535 154.928 195.926 155.561C194.709 156.825 193.642 157.427 192.786 157.622C191.944 157.814 191.287 157.62 190.817 157.238C189.848 156.45 189.544 154.734 190.438 153.37C190.673 153.012 191.126 152.481 191.724 151.84C192.316 151.206 193.027 150.488 193.762 149.762C194.336 149.195 194.926 148.62 195.481 148.08C196.337 147.247 197.11 146.495 197.611 145.975L197.611 145.975C198.889 144.646 199.987 144.051 200.854 143.884C201.703 143.721 202.365 143.961 202.84 144.393C203.841 145.304 204.053 147.098 203.181 148.191Z" fill="white" stroke="black"/>
<path d="M194.262 130.192L194.262 130.192C193.728 130.193 193.044 130.159 192.296 130.122C192.078 130.112 191.856 130.101 191.63 130.09C190.615 130.043 189.515 130.005 188.463 130.04C187.406 130.075 186.426 130.183 185.646 130.416C184.855 130.652 184.357 130.988 184.129 131.412L194.262 130.192ZM194.262 130.192C195.863 130.186 198.02 130.399 199.372 131.089C200.041 131.43 200.425 131.841 200.532 132.316C200.64 132.789 200.51 133.485 199.785 134.485L199.782 134.488L199.76 134.519C199.413 134.991 198.866 135.324 198.135 135.545C197.402 135.766 196.523 135.863 195.564 135.888C194.609 135.912 193.601 135.865 192.616 135.809C192.477 135.802 192.339 135.794 192.202 135.786C191.369 135.738 190.558 135.692 189.843 135.691H189.843M194.262 130.192L189.843 135.691M189.843 135.691C188.175 135.689 186.127 135.58 184.809 134.957M189.843 135.691L184.809 134.957M184.809 134.957C184.165 134.653 183.767 134.26 183.62 133.761M184.809 134.957L183.62 133.761M183.62 133.761C183.47 133.253 183.541 132.506 184.129 131.412L183.62 133.761ZM194.261 129.692C193.741 129.693 193.075 129.66 192.331 129.623C189.219 129.47 184.724 129.248 183.688 131.175C181.214 135.783 186.53 136.187 189.843 136.191C190.542 136.192 191.337 136.237 192.171 136.285C195.225 136.46 198.805 136.665 200.163 134.815L194.261 129.692Z" fill="white" stroke="black"/>
<path d="M213.68 103.054L213.68 103.055C213.648 103.311 213.625 104.099 213.615 105.196C213.605 106.277 213.607 107.62 213.621 108.957C213.634 110.294 213.659 111.622 213.693 112.673C213.71 113.199 213.73 113.653 213.751 114.002C213.774 114.368 213.797 114.579 213.813 114.65C214.115 115.981 215.37 116.804 216.614 116.771C217.225 116.755 217.818 116.531 218.285 116.065C218.752 115.6 219.125 114.859 219.23 113.753L213.68 103.054ZM213.68 103.054C213.799 102.078 214.167 101.4 214.63 100.959C215.094 100.517 215.681 100.29 216.282 100.26C217.493 100.2 218.711 100.94 219.041 102.299M213.68 103.054L219.041 102.299M219.041 102.299C219.061 102.38 219.088 102.594 219.114 102.955M219.041 102.299L219.114 102.955M219.114 102.955C219.139 103.301 219.162 103.745 219.182 104.258M219.114 102.955L219.182 104.258M219.182 104.258C219.222 105.285 219.251 106.574 219.268 107.876M219.182 104.258L219.268 107.876M219.268 107.876C219.303 110.496 219.29 113.112 219.23 113.753L219.268 107.876Z" fill="white" stroke="black"/>
</svg>
